<svg width="80" height="80" viewBox="0 0 80 80" fill="none" xmlns="http://www.w3.org/2000/svg">
<g clip-path="url(#clip0_3769_6191)">
<path d="M56 0H24C10.7452 0 0 10.7452 0 24V56C0 69.2548 10.7452 80 24 80H56C69.2548 80 80 69.2548 80 56V24C80 10.7452 69.2548 0 56 0Z" fill="white"/>
<path d="M0 24C0 10.7452 10.7452 0 24 0H56C69.2548 0 80 10.7452 80 24V56C80 69.2548 69.2548 80 56 80H24C10.7452 80 0 69.2548 0 56V24Z" fill="url(#paint0_linear_3769_6191)"/>
<g filter="url(#filter0_dd_3769_6191)">
<mask id="path-3-outside-1_3769_6191" maskUnits="userSpaceOnUse" x="12.9099" y="14.3913" width="55" height="52" fill="black">
<rect fill="white" x="12.9099" y="14.3913" width="55" height="52"/>
<path fill-rule="evenodd" clip-rule="evenodd" d="M29.8102 20.4047C30.3398 20.0484 31.8949 19.3138 33.8781 19.2257C34.5921 19.1939 35.2559 19.0525 35.9958 18.8948C37.8246 18.5052 40.1184 18.0164 44.7856 18.84C51.3412 19.9969 55.6381 22.9166 59.6045 28.5357C63.5709 34.1547 63.4056 42.6935 62.6895 45.503C61.9733 48.3125 59.935 52.4993 57.4009 55.0333C54.8669 57.5674 52.6633 59.4955 48.0909 60.8727C43.5186 62.25 34.0433 61.4787 31.5092 60.3219C28.9752 59.165 24.1824 56.3004 22.3645 54.3723C20.5466 52.4442 18.2879 48.8083 17.6269 44.897C17.5604 44.5034 17.4949 44.1315 17.4323 43.7756C16.8728 40.5946 16.5369 38.6851 17.6269 33.8793C18.2145 34.1363 19.6321 34.4963 20.6017 33.8793C21.5712 33.2623 21.7832 32.444 21.768 32.1119C22.5272 32.2347 24.2032 32.2376 24.8338 31.2675C25.622 30.0548 25.8444 29.6708 25.6422 28.6804C26.289 28.5053 27.728 27.9367 28.3101 27.0636C29.0377 25.9722 28.5122 24.4563 28.1484 24.234C28.6028 24.005 29.5713 23.369 29.8102 22.6576C30.0492 21.9461 29.9098 20.8592 29.8102 20.4047ZM39.2934 31.4445C41.5081 31.2986 43.6263 31.159 45.5568 32.9446C46.3262 33.6564 46.8271 34.01 47.1896 34.266C47.7618 34.67 47.9893 34.8306 48.384 35.7719C48.4964 36.0399 48.6329 36.3336 48.7781 36.6458C49.4655 38.1245 50.3462 40.0189 49.7729 41.5752C49.6162 42.0004 49.4974 42.375 49.3903 42.7129C49.0226 43.8729 48.7924 44.599 47.64 45.4441C47.5581 45.5041 47.4753 45.5657 47.3911 45.6283C45.9461 46.7027 44.0988 48.0761 39.5054 47.2793C34.6445 46.4361 33.3549 45.0473 32.3629 42.1704C31.3709 39.2936 32.0653 36.9127 33.2061 34.9287C33.4371 34.6432 33.842 34.3348 34.2591 34.0171C34.8012 33.6042 35.3639 33.1756 35.5921 32.7614C35.9152 32.175 38.0711 31.6472 39.1086 31.4566C39.1703 31.4526 39.2319 31.4485 39.2934 31.4445Z"/>
</mask>
<path fill-rule="evenodd" clip-rule="evenodd" d="M29.8102 20.4047C30.3398 20.0484 31.8949 19.3138 33.8781 19.2257C34.5921 19.1939 35.2559 19.0525 35.9958 18.8948C37.8246 18.5052 40.1184 18.0164 44.7856 18.84C51.3412 19.9969 55.6381 22.9166 59.6045 28.5357C63.5709 34.1547 63.4056 42.6935 62.6895 45.503C61.9733 48.3125 59.935 52.4993 57.4009 55.0333C54.8669 57.5674 52.6633 59.4955 48.0909 60.8727C43.5186 62.25 34.0433 61.4787 31.5092 60.3219C28.9752 59.165 24.1824 56.3004 22.3645 54.3723C20.5466 52.4442 18.2879 48.8083 17.6269 44.897C17.5604 44.5034 17.4949 44.1315 17.4323 43.7756C16.8728 40.5946 16.5369 38.6851 17.6269 33.8793C18.2145 34.1363 19.6321 34.4963 20.6017 33.8793C21.5712 33.2623 21.7832 32.444 21.768 32.1119C22.5272 32.2347 24.2032 32.2376 24.8338 31.2675C25.622 30.0548 25.8444 29.6708 25.6422 28.6804C26.289 28.5053 27.728 27.9367 28.3101 27.0636C29.0377 25.9722 28.5122 24.4563 28.1484 24.234C28.6028 24.005 29.5713 23.369 29.8102 22.6576C30.0492 21.9461 29.9098 20.8592 29.8102 20.4047ZM39.2934 31.4445C41.5081 31.2986 43.6263 31.159 45.5568 32.9446C46.3262 33.6564 46.8271 34.01 47.1896 34.266C47.7618 34.67 47.9893 34.8306 48.384 35.7719C48.4964 36.0399 48.6329 36.3336 48.7781 36.6458C49.4655 38.1245 50.3462 40.0189 49.7729 41.5752C49.6162 42.0004 49.4974 42.375 49.3903 42.7129C49.0226 43.8729 48.7924 44.599 47.64 45.4441C47.5581 45.5041 47.4753 45.5657 47.3911 45.6283C45.9461 46.7027 44.0988 48.0761 39.5054 47.2793C34.6445 46.4361 33.3549 45.0473 32.3629 42.1704C31.3709 39.2936 32.0653 36.9127 33.2061 34.9287C33.4371 34.6432 33.842 34.3348 34.2591 34.0171C34.8012 33.6042 35.3639 33.1756 35.5921 32.7614C35.9152 32.175 38.0711 31.6472 39.1086 31.4566C39.1703 31.4526 39.2319 31.4485 39.2934 31.4445Z" fill="#C38316"/>
<path d="M33.8781 19.2257L34.0557 23.2217L34.0557 23.2217L33.8781 19.2257ZM29.8102 20.4047L27.5776 17.0858C26.2156 18.0019 25.5517 19.6572 25.9028 21.2605L29.8102 20.4047ZM35.9958 18.8948L35.1622 14.9827L35.1622 14.9827L35.9958 18.8948ZM44.7856 18.84L44.0905 22.7792L44.7856 18.84ZM59.6045 28.5357L62.8724 26.2289L62.8724 26.2289L59.6045 28.5357ZM62.6895 45.503L58.8134 44.515L58.8134 44.515L62.6895 45.503ZM57.4009 55.0333L60.2294 57.8618L60.2294 57.8618L57.4009 55.0333ZM48.0909 60.8727L49.2446 64.7028L49.2446 64.7028L48.0909 60.8727ZM17.6269 44.897L21.5709 44.2304L21.5709 44.2304L17.6269 44.897ZM17.4323 43.7756L13.4928 44.4686L13.4928 44.4686L17.4323 43.7756ZM17.6269 33.8793L19.2302 30.2146C18.1374 29.7366 16.8883 29.7711 15.8236 30.3088C14.7589 30.8465 13.9898 31.8313 13.726 32.9945L17.6269 33.8793ZM20.6017 33.8793L22.7492 37.2539L22.7492 37.2539L20.6017 33.8793ZM21.768 32.1119L22.4063 28.1632C21.2174 27.971 20.0051 28.3248 19.1061 29.1263C18.2071 29.9278 17.7171 31.0917 17.7722 32.2949L21.768 32.1119ZM24.8338 31.2675L21.48 29.0875L21.48 29.0875L24.8338 31.2675ZM25.6422 28.6804L24.5966 24.8195C22.5589 25.3714 21.3009 27.4118 21.723 29.4803L25.6422 28.6804ZM28.3101 27.0636L24.9819 24.8448L24.9819 24.8448L28.3101 27.0636ZM28.1484 24.234L26.3478 20.6622C25.0515 21.3157 24.211 22.6203 24.1517 24.0708C24.0925 25.5214 24.8239 26.8901 26.0626 27.6471L28.1484 24.234ZM29.8102 22.6576L33.6021 23.9311L33.6021 23.9311L29.8102 22.6576ZM45.5568 32.9446L42.8406 35.881L42.8406 35.881L45.5568 32.9446ZM39.2934 31.4445L39.5564 35.4358L39.5564 35.4358L39.2934 31.4445ZM47.1896 34.266L49.4967 30.9984L49.4967 30.9984L47.1896 34.266ZM48.384 35.7719L52.0728 34.225L52.0728 34.225L48.384 35.7719ZM48.7781 36.6458L52.4053 34.9596L52.4053 34.9596L48.7781 36.6458ZM49.7729 41.5752L46.0195 40.1924L46.0195 40.1924L49.7729 41.5752ZM49.3903 42.7129L53.2033 43.9217L53.2033 43.9217L49.3903 42.7129ZM47.64 45.4441L50.0054 48.6697L50.0055 48.6697L47.64 45.4441ZM47.3911 45.6283L45.0045 42.4183L45.0045 42.4183L47.3911 45.6283ZM39.5054 47.2793L40.1891 43.3382L40.1891 43.3382L39.5054 47.2793ZM32.3629 42.1704L36.1444 40.8665L36.1444 40.8665L32.3629 42.1704ZM33.2061 34.9287L30.0964 32.4127C29.9635 32.577 29.8438 32.7516 29.7385 32.9348L33.2061 34.9287ZM34.2591 34.0171L31.8354 30.835L31.8354 30.835L34.2591 34.0171ZM35.5921 32.7614L39.0954 34.6918L39.0955 34.6918L35.5921 32.7614ZM39.1086 31.4566L38.8483 27.4651C38.6932 27.4752 38.5388 27.4944 38.3859 27.5224L39.1086 31.4566ZM33.7004 15.2296C30.9301 15.3528 28.6715 16.3499 27.5776 17.0858L32.0429 23.7236C31.9582 23.7806 32.1471 23.6513 32.5878 23.5014C32.9942 23.363 33.5029 23.2463 34.0557 23.2217L33.7004 15.2296ZM35.1622 14.9827C34.3707 15.1513 34.0289 15.215 33.7004 15.2296L34.0557 23.2217C35.1553 23.1729 36.1412 22.9537 36.8294 22.807L35.1622 14.9827ZM45.4808 14.9009C40.1527 13.9607 37.314 14.5242 35.1622 14.9827L36.8294 22.807C38.3352 22.4862 40.0841 22.0722 44.0905 22.7792L45.4808 14.9009ZM62.8724 26.2289C58.3583 19.834 53.1753 16.2588 45.4808 14.9009L44.0905 22.7792C49.5071 23.735 52.9179 25.9992 56.3366 30.8424L62.8724 26.2289ZM66.5655 46.491C67.0755 44.4902 67.2803 41.1418 66.877 37.618C66.4702 34.0642 65.3861 29.7901 62.8724 26.2289L56.3366 30.8424C57.7892 32.9002 58.6058 35.7051 58.9289 38.5278C59.2554 41.3805 59.0195 43.7063 58.8134 44.515L66.5655 46.491ZM60.2294 57.8618C63.3717 54.7194 65.7104 49.8457 66.5655 46.491L58.8134 44.515C58.2362 46.7793 56.4983 50.2791 54.5725 52.2049L60.2294 57.8618ZM49.2446 64.7028C54.7052 63.058 57.4632 60.628 60.2294 57.8618L54.5725 52.2049C52.2706 54.5069 50.6214 55.933 46.9373 57.0427L49.2446 64.7028ZM29.8481 63.9606C30.9958 64.4845 32.5091 64.8148 33.8858 65.0381C35.3675 65.2784 37.0804 65.4535 38.833 65.5424C42.2021 65.7134 46.2784 65.5962 49.2446 64.7028L46.9373 57.0427C45.3311 57.5265 42.3836 57.7123 39.2384 57.5527C37.734 57.4764 36.3171 57.3279 35.1666 57.1413C34.5916 57.048 34.1135 56.9501 33.7425 56.8562C33.5584 56.8097 33.4156 56.7679 33.3107 56.7334C33.2018 56.6977 33.1607 56.6787 33.1704 56.6831L29.8481 63.9606ZM19.4542 57.1163C20.7325 58.4721 22.7546 59.894 24.5303 61.017C26.3812 62.1875 28.3749 63.2881 29.8481 63.9606L33.1704 56.6831C32.1095 56.1988 30.4398 55.2886 28.8063 54.2556C27.0976 53.175 25.8144 52.2005 25.2749 51.6282L19.4542 57.1163ZM13.6828 45.5636C14.5008 50.4034 17.2079 54.7339 19.4542 57.1163L25.2749 51.6282C23.8853 50.1544 22.0751 47.2133 21.5709 44.2304L13.6828 45.5636ZM13.4928 44.4686C13.5557 44.826 13.6189 45.1851 13.6828 45.5636L21.5709 44.2304C21.5019 43.8216 21.4342 43.4371 21.3718 43.0826L13.4928 44.4686ZM13.726 32.9945C13.1357 35.5971 12.8888 37.6023 12.9113 39.4846C12.9335 41.3351 13.2204 42.9196 13.4928 44.4686L21.3718 43.0826C21.0848 41.4506 20.9239 40.4898 20.9107 39.3889C20.8979 38.3197 21.0281 36.9673 21.5278 34.764L13.726 32.9945ZM18.4542 30.5046C18.7365 30.3249 18.9834 30.2598 19.1171 30.2363C19.246 30.2136 19.3115 30.2215 19.2977 30.2204C19.2878 30.2196 19.2557 30.2152 19.2141 30.2043C19.1676 30.1922 19.1686 30.1877 19.2302 30.2146L16.0236 37.5439C16.6796 37.8309 17.6108 38.109 18.6444 38.1937C19.6415 38.2754 21.2376 38.2158 22.7492 37.2539L18.4542 30.5046ZM17.7722 32.2949C17.7552 31.9223 17.8048 31.6459 17.8454 31.4816C17.8914 31.2956 17.9543 31.1385 18.0244 31.0071C18.1749 30.7246 18.3545 30.568 18.4542 30.5046L22.7492 37.2539C24.8719 35.9031 25.8475 33.757 25.7638 31.929L17.7722 32.2949ZM21.48 29.0875C21.7761 28.6319 22.1348 28.3892 22.3474 28.2785C22.453 28.2235 22.5346 28.1941 22.5801 28.1797C22.6039 28.1722 22.6216 28.1675 22.6326 28.1649C22.6437 28.1622 22.6496 28.1612 22.6501 28.1611C22.6507 28.161 22.6472 28.1616 22.6397 28.1625C22.6322 28.1634 22.6218 28.1645 22.6086 28.1655C22.5814 28.1675 22.5489 28.1687 22.5133 28.1683C22.4326 28.1676 22.3876 28.1602 22.4063 28.1632L21.1297 36.0607C21.8609 36.1789 22.9304 36.2363 24.0481 36.038C25.0601 35.8584 26.9776 35.3089 28.1876 33.4474L21.48 29.0875ZM21.723 29.4803C21.7367 29.5473 21.7082 29.4393 21.7132 29.2344C21.7158 29.1281 21.7269 29.0109 21.7496 28.8884C21.772 28.7665 21.8017 28.6621 21.8304 28.5795C21.8827 28.4288 21.9238 28.3755 21.8594 28.4868C21.8299 28.5377 21.7865 28.6092 21.7208 28.7134C21.6549 28.8178 21.5776 28.9374 21.48 29.0875L28.1876 33.4474C28.4961 32.9728 29.066 32.131 29.3884 31.2017C29.8228 29.9497 29.7562 28.8348 29.5615 27.8806L21.723 29.4803ZM24.9819 24.8448C25.0631 24.723 25.1362 24.6406 25.1816 24.5937C25.2274 24.5464 25.2574 24.5225 25.2625 24.5185C25.267 24.5149 25.2244 24.5478 25.1213 24.6026C25.0231 24.6548 24.9097 24.7061 24.7974 24.7498C24.7432 24.7709 24.6955 24.7879 24.6575 24.8005C24.6387 24.8068 24.6236 24.8115 24.6126 24.8148C24.6014 24.8182 24.596 24.8197 24.5966 24.8195L26.6879 32.5413C27.2736 32.3827 28.078 32.0914 28.8795 31.6649C29.6002 31.2814 30.8 30.5398 31.6383 29.2824L24.9819 24.8448ZM26.0626 27.6471C25.4937 27.2994 25.1804 26.8981 25.0688 26.7467C24.9269 26.554 24.8463 26.3969 24.8061 26.3109C24.7255 26.1386 24.6991 26.0199 24.6876 25.9477C24.6728 25.8538 24.6166 25.3927 24.9819 24.8448L31.6383 29.2824C32.7312 27.643 32.7761 25.8783 32.5894 24.6981C32.4921 24.0827 32.3115 23.4752 32.0528 22.9219C31.8904 22.5747 31.3751 21.5181 30.2342 20.8209L26.0626 27.6471ZM26.0184 21.3841C26.1539 20.9806 26.3358 20.7405 26.3986 20.6626C26.4699 20.574 26.5094 20.5453 26.4853 20.5656C26.4666 20.5813 26.4313 20.608 26.3866 20.6371C26.3395 20.6677 26.3201 20.6762 26.3478 20.6622L29.949 27.8058C30.4193 27.5688 31.0413 27.1871 31.6349 26.6878C32.1369 26.2656 33.1275 25.3442 33.6021 23.9311L26.0184 21.3841ZM25.9028 21.2605C25.901 21.2522 25.9029 21.2598 25.9068 21.2829C25.9106 21.3049 25.9154 21.335 25.9202 21.3714C25.9301 21.4469 25.9376 21.5278 25.9406 21.6016C25.9421 21.6372 25.9423 21.6656 25.942 21.6862C25.9417 21.7072 25.9408 21.714 25.9414 21.7077C25.9419 21.702 25.9447 21.673 25.954 21.6243C25.9631 21.5766 25.9816 21.4934 26.0184 21.3841L33.6021 23.9311C33.9526 22.8873 33.9585 21.8623 33.9337 21.268C33.906 20.6058 33.8142 19.9898 33.7176 19.5489L25.9028 21.2605ZM48.2729 30.0082C44.9349 26.9206 41.0909 27.3174 39.0304 27.4531L39.5564 35.4358C40.7524 35.357 41.371 35.3342 41.8908 35.4185C42.2565 35.4779 42.519 35.5835 42.8406 35.881L48.2729 30.0082ZM49.4967 30.9984C49.3211 30.8744 49.1766 30.7719 48.9957 30.6299C48.8157 30.4886 48.5802 30.2925 48.2729 30.0082L42.8406 35.881C43.7914 36.7605 44.4499 37.2282 44.8825 37.5336L49.4967 30.9984ZM52.0728 34.225C51.8172 33.6156 51.4716 32.8954 50.8963 32.2212C50.3366 31.5651 49.7048 31.1453 49.4967 30.9984L44.8825 37.5336C44.9593 37.5878 45.0018 37.6179 45.0369 37.6434C45.0693 37.667 45.0721 37.6698 45.0597 37.6599C45.0452 37.6483 45.01 37.6193 44.9635 37.5752C44.9156 37.5298 44.8632 37.4756 44.8104 37.4137C44.7 37.2842 44.6377 37.18 44.6182 37.1452C44.6061 37.1235 44.63 37.1632 44.6952 37.3188L52.0728 34.225ZM52.4053 34.9596C52.2517 34.6293 52.15 34.409 52.0728 34.225L44.6952 37.3188C44.8429 37.6709 45.0142 38.0379 45.1509 38.332L52.4053 34.9596ZM53.5262 42.958C54.2261 41.0583 53.9411 39.2434 53.6053 38.0214C53.2671 36.7912 52.7242 35.6455 52.4053 34.9596L45.1509 38.332C45.5194 39.1248 45.7605 39.6657 45.8913 40.1415C46.0243 40.6254 45.8929 40.5359 46.0195 40.1924L53.5262 42.958ZM53.2033 43.9217C53.3113 43.5809 53.4051 43.2867 53.5262 42.958L46.0195 40.1924C45.8273 40.714 45.6836 41.1691 45.5774 41.5041L53.2033 43.9217ZM50.0055 48.6697C50.9567 47.9721 51.7116 47.1776 52.2803 46.1849C52.7796 45.3133 53.0481 44.4111 53.2033 43.9217L45.5774 41.5041C45.4783 41.8166 45.426 41.9784 45.3767 42.1104C45.3346 42.2231 45.3221 42.237 45.3386 42.2083C45.3606 42.1699 45.3896 42.1316 45.4096 42.1099C45.4233 42.095 45.3933 42.1314 45.2746 42.2185L50.0055 48.6697ZM49.7778 48.8383C49.8638 48.7743 49.936 48.7207 50.0054 48.6697L45.2746 42.2185C45.1802 42.2876 45.0868 42.3571 45.0045 42.4183L49.7778 48.8383ZM38.8218 51.2205C41.6008 51.7025 43.87 51.58 45.8159 50.9753C47.744 50.3762 49.0443 49.3836 49.7778 48.8383L45.0045 42.4183C44.2929 42.9474 43.9471 43.1787 43.4419 43.3357C42.9545 43.4871 42.0035 43.6529 40.1891 43.3382L38.8218 51.2205ZM28.5814 43.4744C29.1846 45.2238 30.0874 47.1499 32.0418 48.6559C33.8721 50.0664 36.1847 50.763 38.8218 51.2205L40.1891 43.3382C37.9652 42.9524 37.2026 42.5331 36.9249 42.3191C36.7712 42.2007 36.5332 41.9939 36.1444 40.8665L28.5814 43.4744ZM29.7385 32.9348C28.2198 35.5759 27.0996 39.1773 28.5814 43.4744L36.1444 40.8665C35.6421 39.4099 35.9107 38.2495 36.6737 36.9226L29.7385 32.9348ZM31.8354 30.835C31.5766 31.0321 30.7015 31.6648 30.0964 32.4127L36.3158 37.4446C36.2409 37.5371 36.188 37.5879 36.1823 37.5934C36.1742 37.6011 36.1865 37.5889 36.2298 37.5526C36.2722 37.5171 36.3295 37.4711 36.4088 37.4093C36.4892 37.3467 36.5754 37.281 36.6828 37.1991L31.8354 30.835ZM32.0887 30.831C32.1564 30.7083 32.2199 30.6146 32.2668 30.5506C32.3141 30.4862 32.3527 30.441 32.3754 30.4154C32.4171 30.3686 32.4291 30.3617 32.3865 30.3995C32.3464 30.4351 32.2831 30.4883 32.1844 30.5662C32.0843 30.6453 31.976 30.7279 31.8354 30.835L36.6828 37.1991C36.9262 37.0138 37.3291 36.7096 37.7001 36.38C38.0295 36.0873 38.6443 35.5106 39.0954 34.6918L32.0887 30.831ZM38.3859 27.5224C37.7499 27.6393 36.7732 27.8569 35.8527 28.1543C35.4013 28.3001 34.8435 28.5031 34.3104 28.7758C33.9973 28.936 32.8018 29.5369 32.0887 30.831L39.0955 34.6918C38.9227 35.0053 38.7356 35.2341 38.5945 35.3848C38.4519 35.5373 38.3241 35.6444 38.2373 35.7114C38.0722 35.8388 37.9576 35.896 37.9536 35.8981C37.948 35.901 38.0545 35.8501 38.3122 35.7669C38.5476 35.6908 38.8241 35.6149 39.1078 35.5462C39.3894 35.478 39.646 35.4248 39.8313 35.3908L38.3859 27.5224ZM39.0305 27.4531C38.9687 27.4572 38.9084 27.4612 38.8483 27.4651L39.369 35.4481C39.4322 35.444 39.4951 35.4399 39.5564 35.4358L39.0305 27.4531Z" fill="white" mask="url(#path-3-outside-1_3769_6191)"/>
</g>
<path d="M0 24C0 10.7452 10.7452 0 24 0H56C69.2548 0 80 10.7452 80 24V56C80 69.2548 69.2548 80 56 80H24C10.7452 80 0 69.2548 0 56V24Z" fill="url(#paint1_linear_3769_6191)"/>
</g>
<defs>
<filter id="filter0_dd_3769_6191" x="10.9099" y="13.3914" width="58.1804" height="55.2176" filterUnits="userSpaceOnUse" color-interpolation-filters="sRGB">
<feFlood flood-opacity="0" result="BackgroundImageFix"/>
<feColorMatrix in="SourceAlpha" type="matrix" values="0 0 0 0 0 0 0 0 0 0 0 0 0 0 0 0 0 0 127 0" result="hardAlpha"/>
<feOffset dy="1"/>
<feGaussianBlur stdDeviation="1"/>
<feComposite in2="hardAlpha" operator="out"/>
<feColorMatrix type="matrix" values="0 0 0 0 0 0 0 0 0 0 0 0 0 0 0 0 0 0 0.12 0"/>
<feBlend mode="normal" in2="BackgroundImageFix" result="effect1_dropShadow_3769_6191"/>
<feColorMatrix in="SourceAlpha" type="matrix" values="0 0 0 0 0 0 0 0 0 0 0 0 0 0 0 0 0 0 127 0" result="hardAlpha"/>
<feOffset dy="1"/>
<feGaussianBlur stdDeviation="0.5"/>
<feComposite in2="hardAlpha" operator="out"/>
<feColorMatrix type="matrix" values="0 0 0 0 0 0 0 0 0 0 0 0 0 0 0 0 0 0 0.08 0"/>
<feBlend mode="normal" in2="effect1_dropShadow_3769_6191" result="effect2_dropShadow_3769_6191"/>
<feBlend mode="normal" in="SourceGraphic" in2="effect2_dropShadow_3769_6191" result="shape"/>
</filter>
<linearGradient id="paint0_linear_3769_6191" x1="80" y1="0" x2="0" y2="80" gradientUnits="userSpaceOnUse">
<stop stop-color="white" stop-opacity="0.4"/>
<stop offset="1" stop-color="white" stop-opacity="0"/>
</linearGradient>
<linearGradient id="paint1_linear_3769_6191" x1="80" y1="80" x2="0" y2="0" gradientUnits="userSpaceOnUse">
<stop stop-color="#D2A251" stop-opacity="0.29"/>
<stop offset="1" stop-color="#D2A251" stop-opacity="0"/>
</linearGradient>
<clipPath id="clip0_3769_6191">
<rect width="80" height="80" fill="white"/>
</clipPath>
</defs>
</svg>
