<svg width="80" height="80" viewBox="0 0 80 80" fill="none" xmlns="http://www.w3.org/2000/svg">
<rect width="80" height="80" rx="24" fill="white"/>
<path d="M0 24C0 10.7452 10.7452 0 24 0H56C69.2548 0 80 10.7452 80 24V56C80 69.2548 69.2548 80 56 80H24C10.7452 80 0 69.2548 0 56V24Z" fill="url(#paint0_linear_3278_542)"/>
<path d="M63.0742 31.2971L46.3138 48.705H56.7233L73.484 31.2971H63.0742Z" fill="#FC231C"/>
<path d="M6.51611 48.7044L19.0472 35.6796C20.3676 34.2671 21.952 33.1497 23.7032 32.396C25.4544 31.6423 27.3353 31.2681 29.2306 31.2965H61.6307L55.349 37.8257H30.8772C29.499 37.8063 28.1314 38.0787 26.8579 38.6264C25.5844 39.1741 24.4317 39.9855 23.4701 41.0112L16.0631 48.7044H6.51611Z" fill="#FC231C"/>
<path d="M17.7004 48.705L24.8261 41.304C25.5437 40.5354 26.4045 39.9267 27.356 39.5149C28.3076 39.1031 29.3298 38.8969 30.3606 38.9088H54.279L48.4861 44.9638H32.0809C31.4432 44.9554 30.8106 45.0818 30.2215 45.3355C29.6323 45.5891 29.0991 45.9647 28.6541 46.4393L26.4726 48.705H17.7004Z" fill="#FC231C"/>
<defs>
<linearGradient id="paint0_linear_3278_542" x1="80" y1="0" x2="0" y2="80" gradientUnits="userSpaceOnUse">
<stop stop-color="white" stop-opacity="0.4"/>
<stop offset="1" stop-color="white" stop-opacity="0"/>
</linearGradient>
</defs>
</svg>
