<svg width="80" height="80" viewBox="0 0 80 80" fill="none" xmlns="http://www.w3.org/2000/svg">
<g clip-path="url(#clip0_3532_88597)">
<path d="M56 0H24C10.7452 0 0 10.7452 0 24V56C0 69.2548 10.7452 80 24 80H56C69.2548 80 80 69.2548 80 56V24C80 10.7452 69.2548 0 56 0Z" fill="white"/>
<path d="M0 24C0 10.7452 10.7452 0 24 0H56C69.2548 0 80 10.7452 80 24V56C80 69.2548 69.2548 80 56 80H24C10.7452 80 0 69.2548 0 56V24Z" fill="url(#paint0_linear_3532_88597)"/>
<path d="M43.8614 17.8342L33.4544 12.8423C31.3509 11.8332 28.8275 12.7206 27.8185 14.8242L22.8267 25.231C21.8176 27.3347 22.7049 29.8579 24.8085 30.867L35.2154 35.8589C37.319 36.8679 39.8423 35.9806 40.8513 33.877L45.8432 23.4701C46.8523 21.3665 45.965 18.8432 43.8614 17.8342Z" fill="#CE3A5E"/>
<path d="M43.4068 18.7867L33 13.7948C31.4222 13.038 29.5298 13.7035 28.773 15.2812L23.7811 25.6881C23.0244 27.2658 23.6898 29.1583 25.2675 29.915L35.6745 34.9069C37.2521 35.6638 39.1446 34.9983 39.9013 33.4205L44.8932 23.0136C45.6501 21.4359 44.9846 19.5435 43.4068 18.7867Z" stroke="white" stroke-opacity="0.08" stroke-width="0.668635"/>
<path d="M43.8614 17.8342L33.4544 12.8423C31.3509 11.8332 28.8275 12.7206 27.8185 14.8242L22.8267 25.231C21.8176 27.3347 22.7049 29.8579 24.8085 30.867L35.2154 35.8589C37.319 36.8679 39.8423 35.9806 40.8513 33.877L45.8432 23.4701C46.8523 21.3665 45.965 18.8432 43.8614 17.8342Z" fill="url(#paint1_linear_3532_88597)"/>
<path d="M43.4068 18.7867L33 13.7948C31.4222 13.038 29.5298 13.7035 28.773 15.2812L23.7811 25.6881C23.0244 27.2658 23.6898 29.1583 25.2675 29.915L35.6745 34.9069C37.2521 35.6638 39.1446 34.9983 39.9013 33.4205L44.8932 23.0136C45.6501 21.4359 44.9846 19.5435 43.4068 18.7867Z" stroke="white" stroke-opacity="0.08" stroke-width="0.668635"/>
<path d="M33.7755 38.8615L23.3685 33.8696C21.2649 32.8606 18.7416 33.7479 17.7326 35.8515L12.7407 46.2584C11.7317 48.362 12.619 50.8853 14.7226 51.8944L25.1295 56.8862C27.2331 57.8952 29.7564 57.0079 30.7654 54.9044L35.7573 44.4974C36.7664 42.3938 35.8791 39.8706 33.7755 38.8615Z" fill="#5CB381"/>
<path d="M33.321 39.8141L22.914 34.8222C21.3363 34.0653 19.4439 34.7308 18.6871 36.3086L13.6952 46.7154C12.9384 48.2932 13.6039 50.1856 15.1816 50.9424L25.5885 55.9343C27.1662 56.6911 29.0587 56.0256 29.8155 54.4479L34.8074 44.041C35.5641 42.4633 34.8986 40.5708 33.321 39.8141Z" stroke="white" stroke-opacity="0.08" stroke-width="0.668635"/>
<path d="M33.7755 38.8615L23.3685 33.8696C21.2649 32.8606 18.7416 33.7479 17.7326 35.8515L12.7407 46.2584C11.7317 48.362 12.619 50.8853 14.7226 51.8944L25.1295 56.8862C27.2331 57.8952 29.7564 57.0079 30.7654 54.9044L35.7573 44.4974C36.7664 42.3938 35.8791 39.8706 33.7755 38.8615Z" fill="url(#paint2_linear_3532_88597)"/>
<path d="M33.321 39.8141L22.914 34.8222C21.3363 34.0653 19.4439 34.7308 18.6871 36.3086L13.6952 46.7154C12.9384 48.2932 13.6039 50.1856 15.1816 50.9424L25.5885 55.9343C27.1662 56.6911 29.0587 56.0256 29.8155 54.4479L34.8074 44.041C35.5641 42.4633 34.8986 40.5708 33.321 39.8141Z" stroke="white" stroke-opacity="0.08" stroke-width="0.668635"/>
<path d="M65.2754 28.1057L54.8685 23.1138C52.7649 22.1047 50.2417 22.992 49.2326 25.0957L44.2407 35.5025C43.2317 37.6061 44.119 40.1295 46.2226 41.1385L56.6295 46.1304C58.7331 47.1395 61.2564 46.2521 62.2654 44.1485L67.2573 33.7416C68.2663 31.638 67.379 29.1147 65.2754 28.1057Z" fill="#63C4EE"/>
<path d="M64.821 29.0582L54.414 24.0663C52.8363 23.3095 50.9438 23.975 50.1871 25.5527L45.1952 35.9596C44.4384 37.5373 45.1039 39.4298 46.6816 40.1865L57.0885 45.1784C58.6662 45.9352 60.5587 45.2698 61.3155 43.692L66.3074 33.2851C67.0641 31.7074 66.3986 29.815 64.821 29.0582Z" stroke="white" stroke-opacity="0.08" stroke-width="0.668635"/>
<path d="M65.2754 28.1057L54.8685 23.1138C52.7649 22.1047 50.2417 22.992 49.2326 25.0957L44.2407 35.5025C43.2317 37.6061 44.119 40.1295 46.2226 41.1385L56.6295 46.1304C58.7331 47.1395 61.2564 46.2521 62.2654 44.1485L67.2573 33.7416C68.2663 31.638 67.379 29.1147 65.2754 28.1057Z" fill="url(#paint3_linear_3532_88597)"/>
<path d="M64.821 29.0582L54.414 24.0663C52.8363 23.3095 50.9438 23.975 50.1871 25.5527L45.1952 35.9596C44.4384 37.5373 45.1039 39.4298 46.6816 40.1865L57.0885 45.1784C58.6662 45.9352 60.5587 45.2698 61.3155 43.692L66.3074 33.2851C67.0641 31.7074 66.3986 29.815 64.821 29.0582Z" stroke="white" stroke-opacity="0.08" stroke-width="0.668635"/>
<path d="M55.1895 49.133L44.7826 44.1411C42.679 43.1321 40.1557 44.0194 39.1467 46.123L34.1548 56.5299C33.1457 58.6335 34.033 61.1568 36.1366 62.1659L46.5436 67.1578C48.6472 68.1667 51.1705 67.2794 52.1795 65.1758L57.1714 54.7689C58.1804 52.6653 57.2931 50.1421 55.1895 49.133Z" fill="#E4B34B"/>
<path d="M54.735 50.0855L44.3281 45.0936C42.7504 44.3368 40.8579 45.0024 40.1011 46.5801L35.1092 56.9869C34.3525 58.5647 35.018 60.4571 36.5956 61.2139L47.0026 66.2058C48.5803 66.9626 50.4728 66.2971 51.2295 64.7194L56.2214 54.3125C56.9782 52.7348 56.3127 50.8424 54.735 50.0855Z" stroke="white" stroke-opacity="0.08" stroke-width="0.668635"/>
<path d="M55.1895 49.133L44.7826 44.1411C42.679 43.1321 40.1557 44.0194 39.1467 46.123L34.1548 56.5299C33.1457 58.6335 34.033 61.1568 36.1366 62.1659L46.5436 67.1578C48.6472 68.1667 51.1705 67.2794 52.1795 65.1758L57.1714 54.7689C58.1804 52.6653 57.2931 50.1421 55.1895 49.133Z" fill="url(#paint4_linear_3532_88597)"/>
<path d="M54.735 50.0855L44.3281 45.0936C42.7504 44.3368 40.8579 45.0024 40.1011 46.5801L35.1092 56.9869C34.3525 58.5647 35.018 60.4571 36.5956 61.2139L47.0026 66.2058C48.5803 66.9626 50.4728 66.2971 51.2295 64.7194L56.2214 54.3125C56.9782 52.7348 56.3127 50.8424 54.735 50.0855Z" stroke="white" stroke-opacity="0.08" stroke-width="0.668635"/>
</g>
<defs>
<linearGradient id="paint0_linear_3532_88597" x1="80" y1="0" x2="0" y2="80" gradientUnits="userSpaceOnUse">
<stop stop-color="white" stop-opacity="0.4"/>
<stop offset="1" stop-color="white" stop-opacity="0"/>
</linearGradient>
<linearGradient id="paint1_linear_3532_88597" x1="38.658" y1="15.3383" x2="30.0121" y2="33.3629" gradientUnits="userSpaceOnUse">
<stop stop-color="white" stop-opacity="0.2"/>
<stop offset="1" stop-color="white" stop-opacity="0"/>
</linearGradient>
<linearGradient id="paint2_linear_3532_88597" x1="28.572" y1="36.3656" x2="19.926" y2="54.3904" gradientUnits="userSpaceOnUse">
<stop stop-color="white" stop-opacity="0.2"/>
<stop offset="1" stop-color="white" stop-opacity="0"/>
</linearGradient>
<linearGradient id="paint3_linear_3532_88597" x1="60.0721" y1="25.6097" x2="51.426" y2="43.6345" gradientUnits="userSpaceOnUse">
<stop stop-color="white" stop-opacity="0.2"/>
<stop offset="1" stop-color="white" stop-opacity="0"/>
</linearGradient>
<linearGradient id="paint4_linear_3532_88597" x1="49.9861" y1="46.6371" x2="41.3401" y2="64.662" gradientUnits="userSpaceOnUse">
<stop stop-color="white" stop-opacity="0.2"/>
<stop offset="1" stop-color="white" stop-opacity="0"/>
</linearGradient>
<clipPath id="clip0_3532_88597">
<rect width="80" height="80" fill="white"/>
</clipPath>
</defs>
</svg>
